# xmcd
#
# Track frame offsets: 
#        150
#        16396
#        34642
#        53280
#        67289
#        84967
#        102380
#        120663
#        144675
#        160861
#        173924
#
# Disc length: 2601 seconds
#
# Revision: 0
# Processed by: cddbd v1.5.2PL0 Copyright (c) Steve Scherf et al.
# Submitted via: ExactAudioCopyFreeDBPlugin 1.0
#
DISCID=8b0a270b
DTITLE=Alison Krauss and Union Station - Paper Airplane
DYEAR=2011
DGENRE=Bluegrass
TTITLE0=Paper Airplane
TTITLE1=Bonita and Bill Butler
TTITLE2=My Opening Farewell
TTITLE3=Dust Bowl Children
TTITLE4=Lie Awake
TTITLE5=Lay My Burden Down
TTITLE6=My Love Follows You Where You Go
TTITLE7=Dimming of the Day
TTITLE8=On the Outside Looking In
TTITLE9=Miles to Go
TTITLE10=Sinking Stone
EXTD=
EXTT0=
EXTT1=
EXTT2=
EXTT3=
EXTT4=
EXTT5=
EXTT6=
EXTT7=
EXTT8=
EXTT9=
EXTT10=
PLAYORDER=
